<svg xmlns="http://www.w3.org/2000/svg" width="800" height="920" viewBox="0 0 800 920">
  <defs>
    <filter id="shadow" x="-2%" y="-2%" width="104%" height="106%">
      <feDropShadow dx="0" dy="1" stdDeviation="3" flood-color="#000" flood-opacity="0.06"/>
    </filter>
    <style>
      text { font-family: -apple-system, BlinkMacSystemFont, 'SF Pro Display', 'Helvetica Neue', sans-serif; }
    </style>
  </defs>

  <rect width="800" height="920" fill="#f5f5f7" rx="12"/>

  <!-- Header -->
  <rect width="800" height="48" fill="rgba(255,255,255,0.85)" rx="12"/>
  <text x="24" y="31" font-size="16" font-weight="600" fill="#1d1d1f">Infinite Campus</text>
  <rect x="680" y="14" width="96" height="22" rx="11" fill="rgba(52,199,89,0.12)"/>
  <circle cx="694" cy="25" r="3.5" fill="#34c759"/>
  <text x="703" y="29" font-size="11" font-weight="500" fill="#248a3d">Running</text>

  <!-- Tab bar -->
  <rect x="16" y="60" width="768" height="36" rx="10" fill="rgba(118,118,128,0.12)"/>
  <rect x="252" y="62" width="100" height="32" rx="8" fill="white" filter="url(#shadow)"/>
  <text x="80" y="83" text-anchor="middle" font-size="12" font-weight="500" fill="#1d1d1f">Dashboard</text>
  <text x="200" y="83" text-anchor="middle" font-size="12" font-weight="500" fill="#1d1d1f">Students</text>
  <text x="302" y="83" text-anchor="middle" font-size="12" font-weight="600" fill="#1d1d1f">Grades</text>
  <text x="420" y="83" text-anchor="middle" font-size="12" font-weight="500" fill="#1d1d1f">Assignments</text>
  <text x="542" y="83" text-anchor="middle" font-size="12" font-weight="500" fill="#0071e3">AI Insights</text>
  <text x="670" y="83" text-anchor="middle" font-size="12" font-weight="500" fill="#1d1d1f">Settings</text>

  <!-- Filters -->
  <text x="16" y="118" font-size="9" font-weight="600" fill="#86868b" letter-spacing="0.5">STUDENT</text>
  <rect x="16" y="124" width="40" height="24" rx="12" fill="#1d1d1f"/>
  <text x="36" y="140" text-anchor="middle" font-size="11" font-weight="500" fill="white">All</text>
  <rect x="62" y="124" width="50" height="24" rx="12" fill="white" stroke="rgba(0,0,0,0.06)"/>
  <text x="87" y="140" text-anchor="middle" font-size="11" font-weight="500" fill="#1d1d1f">Alex</text>
  <rect x="118" y="124" width="52" height="24" rx="12" fill="white" stroke="rgba(0,0,0,0.06)"/>
  <text x="144" y="140" text-anchor="middle" font-size="11" font-weight="500" fill="#1d1d1f">Maya</text>

  <text x="16" y="168" font-size="9" font-weight="600" fill="#86868b" letter-spacing="0.5">TERM</text>
  <rect x="16" y="174" width="68" height="24" rx="12" fill="#1d1d1f"/>
  <text x="50" y="190" text-anchor="middle" font-size="11" font-weight="500" fill="white">All Terms</text>
  <rect x="90" y="174" width="36" height="24" rx="12" fill="white" stroke="rgba(0,0,0,0.06)"/>
  <text x="108" y="190" text-anchor="middle" font-size="11" font-weight="500" fill="#1d1d1f">M4</text>
  <rect x="132" y="174" width="36" height="24" rx="12" fill="white" stroke="rgba(0,0,0,0.06)"/>
  <text x="150" y="190" text-anchor="middle" font-size="11" font-weight="500" fill="#1d1d1f">M3</text>
  <rect x="174" y="174" width="36" height="24" rx="12" fill="white" stroke="rgba(0,0,0,0.06)"/>
  <text x="192" y="190" text-anchor="middle" font-size="11" font-weight="500" fill="#1d1d1f">M2</text>
  <rect x="216" y="174" width="36" height="24" rx="12" fill="white" stroke="rgba(0,0,0,0.06)"/>
  <text x="234" y="190" text-anchor="middle" font-size="11" font-weight="500" fill="#1d1d1f">M1</text>

  <!-- Subject filter dropdown -->
  <g transform="translate(16, 210)">
    <text x="0" y="14" font-size="13" font-weight="600" fill="#555">Subject</text>
    <rect x="65" y="0" width="180" height="24" rx="10" fill="white" stroke="rgba(0,0,0,0.12)" stroke-width="1.5"/>
    <text x="77" y="16" font-size="13" fill="#333">All Subjects (8)</text>
    <!-- dropdown chevron -->
    <polyline points="228,9 233,14 238,9" fill="none" stroke="#888" stroke-width="1.5" stroke-linecap="round" stroke-linejoin="round"/>
  </g>

  <!-- ═══ ROW 1: Course Grades Bar Chart + Term Trend Line Chart (side by side) ═══ -->

  <!-- Card 1: Course Grades (horizontal bar chart) -->
  <g transform="translate(16, 244)">
    <rect width="375" height="220" rx="14" fill="white" filter="url(#shadow)"/>
    <!-- Header with icon -->
    <path d="M34 208V198M28 208V192M22 208v-10" fill="none" stroke="#34c759" stroke-width="2" stroke-linecap="round" transform="translate(-6,-192)"/>
    <text x="36" y="24" font-size="13" font-weight="600" fill="#1d1d1f">Course Grades</text>

    <!-- Y-axis labels + horizontal bars -->
    <!-- Am History 7: 88% -->
    <text x="110" y="54" text-anchor="end" font-size="11" fill="#1d1d1f">Am History 7</text>
    <rect x="116" y="42" width="222" height="14" rx="6" fill="#0071e3"/>
    <!-- ELA 7: 93% -->
    <text x="110" y="78" text-anchor="end" font-size="11" fill="#1d1d1f">ELA 7</text>
    <rect x="116" y="66" width="235" height="14" rx="6" fill="#34c759"/>
    <!-- Phys Ed 7: 96% -->
    <text x="110" y="102" text-anchor="end" font-size="11" fill="#1d1d1f">Phys Ed 7</text>
    <rect x="116" y="90" width="242" height="14" rx="6" fill="#34c759"/>
    <!-- 7/8 Math: 82% -->
    <text x="110" y="126" text-anchor="end" font-size="11" fill="#1d1d1f">7/8 Math</text>
    <rect x="116" y="114" width="207" height="14" rx="6" fill="#0071e3"/>
    <!-- Science 7: 79% -->
    <text x="110" y="150" text-anchor="end" font-size="11" fill="#1d1d1f">Science 7</text>
    <rect x="116" y="138" width="199" height="14" rx="6" fill="#ff9500"/>
    <!-- Science 5: 86% -->
    <text x="110" y="174" text-anchor="end" font-size="11" fill="#1d1d1f">Science 5</text>
    <rect x="116" y="162" width="217" height="14" rx="6" fill="#0071e3"/>

    <!-- X-axis -->
    <line x1="116" y1="190" x2="356" y2="190" stroke="rgba(0,0,0,0.06)" stroke-width="0.5"/>
    <text x="116" y="204" font-size="9" fill="#86868b" text-anchor="middle">0</text>
    <text x="176" y="204" font-size="9" fill="#86868b" text-anchor="middle">20</text>
    <text x="236" y="204" font-size="9" fill="#86868b" text-anchor="middle">40</text>
    <text x="296" y="204" font-size="9" fill="#86868b" text-anchor="middle">60</text>
    <text x="356" y="204" font-size="9" fill="#86868b" text-anchor="middle">100</text>
  </g>

  <!-- Card 2: Term Trend by Subject (line chart) -->
  <g transform="translate(403, 244)">
    <rect width="381" height="220" rx="14" fill="white" filter="url(#shadow)"/>
    <!-- Header with icon -->
    <polyline points="22,12 18,12 15,21 9,3 6,12 2,12" fill="none" stroke="#0071e3" stroke-width="2" stroke-linecap="round" transform="translate(4,4)"/>
    <text x="36" y="24" font-size="13" font-weight="600" fill="#1d1d1f">Term Trend by Subject</text>

    <!-- Y-axis labels -->
    <text x="28" y="50" font-size="9" fill="#86868b" text-anchor="end">100</text>
    <text x="28" y="82" font-size="9" fill="#86868b" text-anchor="end">90</text>
    <text x="28" y="114" font-size="9" fill="#86868b" text-anchor="end">80</text>
    <text x="28" y="146" font-size="9" fill="#86868b" text-anchor="end">70</text>

    <!-- Grid lines -->
    <line x1="34" y1="46" x2="360" y2="46" stroke="rgba(0,0,0,0.04)" stroke-width="0.5"/>
    <line x1="34" y1="78" x2="360" y2="78" stroke="rgba(0,0,0,0.04)" stroke-width="0.5"/>
    <line x1="34" y1="110" x2="360" y2="110" stroke="rgba(0,0,0,0.04)" stroke-width="0.5"/>
    <line x1="34" y1="142" x2="360" y2="142" stroke="rgba(0,0,0,0.04)" stroke-width="0.5"/>

    <!-- X-axis labels -->
    <text x="75" y="164" font-size="10" fill="#86868b" text-anchor="middle">M1</text>
    <text x="156" y="164" font-size="10" fill="#86868b" text-anchor="middle">M2</text>
    <text x="237" y="164" font-size="10" fill="#86868b" text-anchor="middle">M3</text>
    <text x="318" y="164" font-size="10" fill="#86868b" text-anchor="middle">M4</text>

    <!-- Line: Am History 7 (blue #0071e3): 75→81→85→88 -->
    <polyline points="75,126 156,114 237,110 318,100" fill="none" stroke="#0071e3" stroke-width="2" stroke-linejoin="round"/>
    <circle cx="75" cy="126" r="3" fill="#0071e3"/>
    <circle cx="156" cy="114" r="3" fill="#0071e3"/>
    <circle cx="237" cy="110" r="3" fill="#0071e3"/>
    <circle cx="318" cy="100" r="3" fill="#0071e3"/>

    <!-- Line: ELA 7 (green #34c759): 82→91→88→93 -->
    <polyline points="75,114 156,82 237,90 318,69" fill="none" stroke="#34c759" stroke-width="2" stroke-linejoin="round"/>
    <circle cx="75" cy="114" r="3" fill="#34c759"/>
    <circle cx="156" cy="82" r="3" fill="#34c759"/>
    <circle cx="237" cy="90" r="3" fill="#34c759"/>
    <circle cx="318" cy="69" r="3" fill="#34c759"/>

    <!-- Line: Phys Ed 7 (orange #ff9500): 95→98→94→96 -->
    <polyline points="75,62 156,53 237,66 318,59" fill="none" stroke="#ff9500" stroke-width="2" stroke-linejoin="round"/>
    <circle cx="75" cy="62" r="3" fill="#ff9500"/>
    <circle cx="156" cy="53" r="3" fill="#ff9500"/>
    <circle cx="237" cy="66" r="3" fill="#ff9500"/>
    <circle cx="318" cy="59" r="3" fill="#ff9500"/>

    <!-- Line: Science 7 (purple #af52de): 72→78→75→79 -->
    <polyline points="75,130 156,118 237,126 318,118" fill="none" stroke="#af52de" stroke-width="2" stroke-linejoin="round"/>
    <circle cx="75" cy="130" r="3" fill="#af52de"/>
    <circle cx="156" cy="118" r="3" fill="#af52de"/>
    <circle cx="237" cy="126" r="3" fill="#af52de"/>
    <circle cx="318" cy="118" r="3" fill="#af52de"/>

    <!-- Line: 7/8 Math (red #ff3b30): 80→84→78→82 -->
    <polyline points="75,118 156,106 237,118 318,114" fill="none" stroke="#ff3b30" stroke-width="2" stroke-linejoin="round"/>
    <circle cx="75" cy="118" r="3" fill="#ff3b30"/>
    <circle cx="156" cy="106" r="3" fill="#ff3b30"/>
    <circle cx="237" cy="118" r="3" fill="#ff3b30"/>
    <circle cx="318" cy="114" r="3" fill="#ff3b30"/>

    <!-- Dashed Average line: 80.8→86.4→84→87.6 -->
    <polyline points="75,117 156,99 237,106 318,94" fill="none" stroke="#333" stroke-width="1.5" stroke-dasharray="6,3"/>

    <!-- Legend -->
    <rect x="16" y="174" width="8" height="8" rx="2" fill="#0071e3"/>
    <text x="28" y="182" font-size="9" fill="#555">Am History</text>
    <rect x="82" y="174" width="8" height="8" rx="2" fill="#34c759"/>
    <text x="94" y="182" font-size="9" fill="#555">ELA 7</text>
    <rect x="130" y="174" width="8" height="8" rx="2" fill="#ff9500"/>
    <text x="142" y="182" font-size="9" fill="#555">Phys Ed</text>
    <rect x="185" y="174" width="8" height="8" rx="2" fill="#af52de"/>
    <text x="197" y="182" font-size="9" fill="#555">Science 7</text>
    <rect x="249" y="174" width="8" height="8" rx="2" fill="#ff3b30"/>
    <text x="261" y="182" font-size="9" fill="#555">7/8 Math</text>
    <!-- Average legend -->
    <line x1="310" y1="178" x2="330" y2="178" stroke="#333" stroke-width="1.5" stroke-dasharray="4,2"/>
    <text x="334" y="182" font-size="9" fill="#555">Avg</text>
  </g>

  <!-- ═══ ROW 2: Overview + Distribution + Assignments (side by side) ═══ -->

  <!-- Card 1: Overview -->
  <g transform="translate(16, 478)">
    <rect width="248" height="108" rx="14" fill="white" filter="url(#shadow)"/>
    <text x="16" y="24" font-size="13" font-weight="600" fill="#1d1d1f">Overview</text>
    <!-- Alex -->
    <text x="16" y="48" font-size="12" font-weight="600" fill="#1d1d1f">Alex Johnson</text>
    <text x="220" y="48" font-size="12" font-weight="700" fill="#34c759" text-anchor="end">87.2%</text>
    <rect x="16" y="54" width="216" height="6" rx="3" fill="rgba(0,0,0,0.06)"/>
    <rect x="16" y="54" width="188" height="6" rx="3" fill="#34c759"/>
    <text x="16" y="72" font-size="9" fill="#86868b">6 courses + 2 standards · 72%–98%</text>
    <!-- Maya -->
    <text x="16" y="90" font-size="12" font-weight="600" fill="#1d1d1f">Maya Johnson</text>
    <text x="220" y="90" font-size="12" font-weight="700" fill="#0071e3" text-anchor="end">82.5%</text>
    <rect x="16" y="96" width="216" height="6" rx="3" fill="rgba(0,0,0,0.06)"/>
    <rect x="16" y="96" width="178" height="6" rx="3" fill="#0071e3"/>
  </g>

  <!-- Card 2: Distribution -->
  <g transform="translate(276, 478)">
    <rect width="248" height="108" rx="14" fill="white" filter="url(#shadow)"/>
    <text x="16" y="24" font-size="13" font-weight="600" fill="#1d1d1f">Distribution</text>
    <circle cx="60" cy="68" r="22" fill="none" stroke="#34c759" stroke-width="9" stroke-dasharray="92 46" stroke-dashoffset="0" transform="rotate(-90 60 68)"/>
    <circle cx="60" cy="68" r="22" fill="none" stroke="#0071e3" stroke-width="9" stroke-dasharray="34.5 103.7" stroke-dashoffset="-92" transform="rotate(-90 60 68)"/>
    <circle cx="60" cy="68" r="22" fill="none" stroke="#ff9500" stroke-width="9" stroke-dasharray="11.5 126.7" stroke-dashoffset="-126.5" transform="rotate(-90 60 68)"/>
    <rect x="100" y="38" width="22" height="16" rx="5" fill="rgba(52,199,89,0.12)"/>
    <text x="111" y="50" text-anchor="middle" font-size="10" font-weight="700" fill="#248a3d">A</text>
    <text x="128" y="50" font-size="11" fill="#1d1d1f">5</text>
    <rect x="148" y="38" width="22" height="16" rx="5" fill="rgba(0,113,227,0.1)"/>
    <text x="159" y="50" text-anchor="middle" font-size="10" font-weight="700" fill="#0071e3">B</text>
    <text x="176" y="50" font-size="11" fill="#1d1d1f">3</text>
    <rect x="196" y="38" width="22" height="16" rx="5" fill="rgba(255,149,0,0.12)"/>
    <text x="207" y="50" text-anchor="middle" font-size="10" font-weight="700" fill="#c93400">C</text>
    <text x="224" y="50" font-size="11" fill="#1d1d1f">1</text>
    <text x="100" y="72" font-size="8" font-weight="600" fill="#86868b" letter-spacing="0.3">STANDARDS</text>
    <rect x="100" y="78" width="22" height="16" rx="5" fill="rgba(52,199,89,0.12)"/>
    <text x="111" y="90" text-anchor="middle" font-size="10" font-weight="700" fill="#248a3d">G</text>
    <text x="128" y="90" font-size="11" fill="#1d1d1f">8</text>
    <rect x="148" y="78" width="26" height="16" rx="5" fill="rgba(255,149,0,0.12)"/>
    <text x="161" y="90" text-anchor="middle" font-size="10" font-weight="700" fill="#c93400">NY</text>
    <text x="180" y="90" font-size="11" fill="#1d1d1f">1</text>
  </g>

  <!-- Card 3: Assignments -->
  <g transform="translate(536, 478)">
    <rect width="248" height="108" rx="14" fill="white" filter="url(#shadow)"/>
    <text x="16" y="24" font-size="13" font-weight="600" fill="#1d1d1f">Assignments</text>
    <text x="16" y="46" font-size="11" font-weight="600" fill="#1d1d1f">Alex</text>
    <circle cx="40" cy="72" r="16" fill="none" stroke="#34c759" stroke-width="7" stroke-dasharray="75 25" stroke-dashoffset="0" transform="rotate(-90 40 72)"/>
    <circle cx="40" cy="72" r="16" fill="none" stroke="#ddd" stroke-width="7" stroke-dasharray="15 85" stroke-dashoffset="-75" transform="rotate(-90 40 72)"/>
    <circle cx="40" cy="72" r="16" fill="none" stroke="#ff3b30" stroke-width="7" stroke-dasharray="10 90" stroke-dashoffset="-90" transform="rotate(-90 40 72)"/>
    <text x="72" y="64" font-size="10" fill="#1d1d1f"><tspan font-weight="600" fill="#34c759">38</tspan> graded</text>
    <text x="72" y="78" font-size="10" fill="#1d1d1f"><tspan font-weight="600">6</tspan> pending · <tspan font-weight="600" fill="#ff3b30">1</tspan> missing</text>
    <text x="140" y="46" font-size="11" font-weight="600" fill="#1d1d1f">Maya</text>
    <circle cx="164" cy="72" r="16" fill="none" stroke="#34c759" stroke-width="7" stroke-dasharray="68 32" stroke-dashoffset="0" transform="rotate(-90 164 72)"/>
    <circle cx="164" cy="72" r="16" fill="none" stroke="#ddd" stroke-width="7" stroke-dasharray="18 82" stroke-dashoffset="-68" transform="rotate(-90 164 72)"/>
    <circle cx="164" cy="72" r="16" fill="none" stroke="#ff9500" stroke-width="7" stroke-dasharray="8 92" stroke-dashoffset="-86" transform="rotate(-90 164 72)"/>
    <circle cx="164" cy="72" r="16" fill="none" stroke="#ff3b30" stroke-width="7" stroke-dasharray="6 94" stroke-dashoffset="-94" transform="rotate(-90 164 72)"/>
    <text x="196" y="64" font-size="10" fill="#1d1d1f"><tspan font-weight="600" fill="#34c759">32</tspan> graded</text>
    <text x="196" y="78" font-size="10" fill="#1d1d1f"><tspan font-weight="600" fill="#ff9500">2</tspan> late · <tspan font-weight="600" fill="#ff3b30">1</tspan> miss</text>
  </g>

  <!-- ═══ ROW 3: Grade Trend Table ═══ -->
  <g transform="translate(16, 600)">
    <rect width="768" height="156" rx="14" fill="white" filter="url(#shadow)"/>
    <text x="16" y="26" font-size="13" font-weight="600" fill="#1d1d1f">Grade Trend by Term</text>

    <!-- Table header -->
    <text x="16" y="50" font-size="10" font-weight="600" fill="#86868b">Course</text>
    <text x="190" y="50" font-size="10" font-weight="600" fill="#86868b" text-anchor="middle">Student</text>
    <text x="280" y="50" font-size="10" font-weight="600" fill="#86868b" text-anchor="middle">M1</text>
    <text x="370" y="50" font-size="10" font-weight="600" fill="#86868b" text-anchor="middle">M2</text>
    <text x="460" y="50" font-size="10" font-weight="600" fill="#86868b" text-anchor="middle">M3</text>
    <text x="550" y="50" font-size="10" font-weight="600" fill="#86868b" text-anchor="middle">M4</text>
    <text x="650" y="50" font-size="10" font-weight="600" fill="#86868b" text-anchor="middle">Trend</text>
    <line x1="16" y1="56" x2="752" y2="56" stroke="rgba(0,0,0,0.08)" stroke-width="1"/>

    <!-- Row 1: ELA 7 - Alex -->
    <text x="16" y="76" font-size="12" font-weight="500" fill="#1d1d1f">ELA 7</text>
    <text x="190" y="76" font-size="11" fill="#86868b" text-anchor="middle">Alex</text>
    <rect x="254" y="63" width="52" height="20" rx="6" fill="rgba(0,113,227,0.08)"/>
    <text x="280" y="77" text-anchor="middle" font-size="11" font-weight="600" fill="#0071e3">82%</text>
    <rect x="344" y="63" width="52" height="20" rx="6" fill="rgba(52,199,89,0.08)"/>
    <text x="370" y="77" text-anchor="middle" font-size="11" font-weight="600" fill="#34c759">91%</text>
    <rect x="434" y="63" width="52" height="20" rx="6" fill="rgba(0,113,227,0.08)"/>
    <text x="460" y="77" text-anchor="middle" font-size="11" font-weight="600" fill="#0071e3">88%</text>
    <rect x="524" y="63" width="52" height="20" rx="6" fill="rgba(52,199,89,0.08)"/>
    <text x="550" y="77" text-anchor="middle" font-size="11" font-weight="600" fill="#34c759">93%</text>
    <text x="650" y="77" text-anchor="middle" font-size="12" font-weight="600" fill="#34c759">&#9650; +11</text>
    <line x1="16" y1="86" x2="752" y2="86" stroke="rgba(0,0,0,0.04)" stroke-width="0.5"/>

    <!-- Row 2: Am History 7 - Alex -->
    <text x="16" y="106" font-size="12" font-weight="500" fill="#1d1d1f">Am History 7</text>
    <text x="190" y="106" font-size="11" fill="#86868b" text-anchor="middle">Alex</text>
    <rect x="254" y="93" width="52" height="20" rx="6" fill="rgba(255,149,0,0.08)"/>
    <text x="280" y="107" text-anchor="middle" font-size="11" font-weight="600" fill="#c93400">75%</text>
    <rect x="344" y="93" width="52" height="20" rx="6" fill="rgba(0,113,227,0.08)"/>
    <text x="370" y="107" text-anchor="middle" font-size="11" font-weight="600" fill="#0071e3">81%</text>
    <rect x="434" y="93" width="52" height="20" rx="6" fill="rgba(0,113,227,0.08)"/>
    <text x="460" y="107" text-anchor="middle" font-size="11" font-weight="600" fill="#0071e3">85%</text>
    <rect x="524" y="93" width="52" height="20" rx="6" fill="rgba(0,113,227,0.08)"/>
    <text x="550" y="107" text-anchor="middle" font-size="11" font-weight="600" fill="#0071e3">88%</text>
    <text x="650" y="107" text-anchor="middle" font-size="12" font-weight="600" fill="#34c759">&#9650; +13</text>
    <line x1="16" y1="116" x2="752" y2="116" stroke="rgba(0,0,0,0.04)" stroke-width="0.5"/>

    <!-- Row 3: Science 5 - Maya -->
    <text x="16" y="136" font-size="12" font-weight="500" fill="#1d1d1f">Science 5</text>
    <text x="190" y="136" font-size="11" fill="#86868b" text-anchor="middle">Maya</text>
    <rect x="254" y="123" width="52" height="20" rx="6" fill="rgba(0,113,227,0.08)"/>
    <text x="280" y="137" text-anchor="middle" font-size="11" font-weight="600" fill="#0071e3">80%</text>
    <rect x="344" y="123" width="52" height="20" rx="6" fill="rgba(0,113,227,0.08)"/>
    <text x="370" y="137" text-anchor="middle" font-size="11" font-weight="600" fill="#0071e3">83%</text>
    <rect x="434" y="123" width="52" height="20" rx="6" fill="rgba(255,149,0,0.08)"/>
    <text x="460" y="137" text-anchor="middle" font-size="11" font-weight="600" fill="#ff9500">79%</text>
    <rect x="524" y="123" width="52" height="20" rx="6" fill="rgba(0,113,227,0.08)"/>
    <text x="550" y="137" text-anchor="middle" font-size="11" font-weight="600" fill="#0071e3">86%</text>
    <text x="650" y="137" text-anchor="middle" font-size="12" font-weight="600" fill="#34c759">&#9650; +6</text>
  </g>

  <!-- ═══ ROW 4: Expandable Course Card (ELA 7 expanded) ═══ -->
  <g transform="translate(16, 770)">
    <rect width="768" height="140" rx="14" fill="white" filter="url(#shadow)"/>
    <text x="18" y="26" font-size="14" font-weight="600" fill="#1d1d1f">ELA 7</text>
    <text x="18" y="42" font-size="11" fill="#86868b">Alex · Ms. Thompson · M4</text>
    <rect x="660" y="12" width="36" height="20" rx="6" fill="rgba(52,199,89,0.12)"/>
    <text x="678" y="26" text-anchor="middle" font-size="12" font-weight="700" fill="#248a3d">A</text>
    <text x="710" y="26" font-size="14" font-weight="700" fill="#34c759">93.2%</text>
    <text x="750" y="26" font-size="14" fill="#86868b">&#8250;</text>
    <line x1="0" y1="52" x2="768" y2="52" stroke="rgba(0,0,0,0.06)"/>

    <!-- Assessments -->
    <text x="18" y="70" font-size="9" font-weight="600" fill="#86868b" letter-spacing="0.4">ASSESSMENTS (3)</text>
    <text x="18" y="92" font-size="12" fill="#1d1d1f">Chapter 5 Quiz</text>
    <text x="420" y="92" font-size="10" fill="#86868b">Mar 12</text>
    <text x="520" y="92" font-size="12" font-weight="600" fill="#1d1d1f" text-anchor="end">45/50 (90%)</text>
    <line x1="18" y1="100" x2="748" y2="100" stroke="rgba(0,0,0,0.03)"/>

    <text x="18" y="118" font-size="12" fill="#1d1d1f">Vocabulary Unit 8</text>
    <text x="420" y="118" font-size="10" fill="#86868b">Mar 9</text>
    <text x="520" y="118" font-size="12" font-weight="600" fill="#1d1d1f" text-anchor="end">38/40 (95%)</text>
    <line x1="18" y1="126" x2="748" y2="126" stroke="rgba(0,0,0,0.03)"/>
  </g>
</svg>
