<svg xmlns="http://www.w3.org/2000/svg" width="375" height="700" viewBox="0 0 375 700">
  <defs>
    <filter id="shadow" x="-2%" y="-2%" width="104%" height="106%">
      <feDropShadow dx="0" dy="1" stdDeviation="3" flood-color="#000" flood-opacity="0.06"/>
    </filter>
    <style>
      text { font-family: -apple-system, BlinkMacSystemFont, 'SF Pro Display', 'Helvetica Neue', sans-serif; }
    </style>
  </defs>

  <!-- Phone frame -->
  <rect width="375" height="700" fill="#f5f5f7" rx="24"/>

  <!-- Header -->
  <rect width="375" height="44" fill="rgba(255,255,255,0.85)" rx="24"/>
  <text x="16" y="29" font-size="14" font-weight="600" fill="#1d1d1f">Infinite Campus</text>
  <rect x="280" y="12" width="80" height="20" rx="10" fill="rgba(52,199,89,0.12)"/>
  <circle cx="292" cy="22" r="3" fill="#34c759"/>
  <text x="300" y="26" font-size="10" font-weight="500" fill="#248a3d">Running</text>

  <!-- Tab bar -->
  <rect x="12" y="52" width="351" height="32" rx="8" fill="rgba(118,118,128,0.12)"/>
  <rect x="14" y="54" width="52" height="28" rx="7" fill="white" filter="url(#shadow)"/>
  <text x="40" y="72" text-anchor="middle" font-size="9" font-weight="600" fill="#1d1d1f">Dashboard</text>
  <text x="100" y="72" text-anchor="middle" font-size="9" font-weight="500" fill="#1d1d1f">Students</text>
  <text x="155" y="72" text-anchor="middle" font-size="9" font-weight="500" fill="#1d1d1f">Grades</text>
  <text x="212" y="72" text-anchor="middle" font-size="9" font-weight="500" fill="#1d1d1f">Assign...</text>
  <text x="275" y="72" text-anchor="middle" font-size="9" font-weight="500" fill="#0071e3">AI</text>
  <text x="332" y="72" text-anchor="middle" font-size="9" font-weight="500" fill="#1d1d1f">Settings</text>

  <!-- Stats Grid (2x3) -->
  <g transform="translate(12, 96)">
    <rect width="170" height="60" rx="12" fill="white" filter="url(#shadow)"/>
    <text x="85" y="30" text-anchor="middle" font-size="20" font-weight="700" fill="#1d1d1f">2</text>
    <text x="85" y="46" text-anchor="middle" font-size="8" font-weight="500" fill="#86868b" letter-spacing="0.4">STUDENTS</text>

    <g transform="translate(181, 0)">
      <rect width="170" height="60" rx="12" fill="white" filter="url(#shadow)"/>
      <text x="85" y="30" text-anchor="middle" font-size="20" font-weight="700" fill="#1d1d1f">14</text>
      <text x="85" y="46" text-anchor="middle" font-size="8" font-weight="500" fill="#86868b" letter-spacing="0.4">COURSES</text>
    </g>

    <g transform="translate(0, 68)">
      <rect width="170" height="60" rx="12" fill="white" filter="url(#shadow)"/>
      <text x="85" y="30" text-anchor="middle" font-size="20" font-weight="700" fill="#1d1d1f">42</text>
      <text x="85" y="46" text-anchor="middle" font-size="8" font-weight="500" fill="#86868b" letter-spacing="0.4">GRADES</text>
    </g>

    <g transform="translate(181, 68)">
      <rect width="170" height="60" rx="12" fill="white" filter="url(#shadow)"/>
      <text x="85" y="30" text-anchor="middle" font-size="20" font-weight="700" fill="#1d1d1f">186</text>
      <text x="85" y="46" text-anchor="middle" font-size="8" font-weight="500" fill="#86868b" letter-spacing="0.4">ASSIGNMENTS</text>
    </g>
  </g>

  <!-- Quick Actions -->
  <g transform="translate(12, 234)">
    <rect width="351" height="62" rx="12" fill="white" filter="url(#shadow)"/>
    <text x="14" y="22" font-size="12" font-weight="600" fill="#1d1d1f">Quick Actions</text>
    <rect x="14" y="32" width="90" height="20" rx="10" fill="#0071e3"/>
    <text x="59" y="46" text-anchor="middle" font-size="10" font-weight="500" fill="white">Refresh Data</text>
    <rect x="112" y="32" width="90" height="20" rx="10" fill="#34c759"/>
    <text x="157" y="46" text-anchor="middle" font-size="10" font-weight="500" fill="white">Start Service</text>
    <rect x="210" y="32" width="90" height="20" rx="10" fill="#ff3b30"/>
    <text x="255" y="46" text-anchor="middle" font-size="10" font-weight="500" fill="white">Stop Service</text>
  </g>

  <!-- Recent Assignments (mobile card style) -->
  <g transform="translate(12, 308)">
    <rect width="351" height="36" rx="12" fill="white" filter="url(#shadow)"/>
    <text x="14" y="24" font-size="12" font-weight="600" fill="#1d1d1f">Recent Assignments</text>
  </g>

  <!-- Assignment Card 1 -->
  <g transform="translate(12, 352)">
    <rect width="351" height="66" rx="10" fill="white" filter="url(#shadow)"/>
    <text x="14" y="20" font-size="13" font-weight="600" fill="#1d1d1f">Chapter 5 Quiz</text>
    <rect x="280" y="8" width="44" height="16" rx="8" fill="rgba(0,113,227,0.08)"/>
    <text x="302" y="19" text-anchor="middle" font-size="9" font-weight="600" fill="#0071e3">Graded</text>
    <text x="14" y="40" font-size="11" fill="#86868b">Alex · ELA 7</text>
    <text x="14" y="56" font-size="11" fill="#86868b">Due Mar 12 · 45/50 (90%)</text>
  </g>

  <!-- Assignment Card 2 -->
  <g transform="translate(12, 426)">
    <rect width="351" height="66" rx="10" fill="white" filter="url(#shadow)"/>
    <text x="14" y="20" font-size="13" font-weight="600" fill="#1d1d1f">Photosynthesis Lab Report</text>
    <rect x="267" y="8" width="58" height="16" rx="8" fill="rgba(52,199,89,0.1)"/>
    <text x="296" y="19" text-anchor="middle" font-size="9" font-weight="600" fill="#248a3d">Turned In</text>
    <text x="14" y="40" font-size="11" fill="#86868b">Maya · Science 7</text>
    <text x="14" y="56" font-size="11" fill="#86868b">Due Mar 13</text>
  </g>

  <!-- Assignment Card 3 -->
  <g transform="translate(12, 500)">
    <rect width="351" height="66" rx="10" fill="white" filter="url(#shadow)"/>
    <text x="14" y="20" font-size="13" font-weight="600" fill="#1d1d1f">Linear Equations Practice</text>
    <rect x="280" y="8" width="44" height="16" rx="8" fill="rgba(0,113,227,0.08)"/>
    <text x="302" y="19" text-anchor="middle" font-size="9" font-weight="600" fill="#0071e3">Graded</text>
    <text x="14" y="40" font-size="11" fill="#86868b">Alex · 7/8 Math</text>
    <text x="14" y="56" font-size="11" fill="#86868b">Due Mar 11 · G</text>
  </g>

  <!-- Assignment Card 4 -->
  <g transform="translate(12, 574)">
    <rect width="351" height="66" rx="10" fill="white" filter="url(#shadow)"/>
    <text x="14" y="20" font-size="13" font-weight="600" fill="#1d1d1f">American Revolution Essay</text>
    <rect x="275" y="8" width="50" height="16" rx="8" fill="rgba(255,59,48,0.1)"/>
    <text x="300" y="19" text-anchor="middle" font-size="9" font-weight="600" fill="#d70015">Missing</text>
    <text x="14" y="40" font-size="11" fill="#86868b">Maya · History 5</text>
    <text x="14" y="56" font-size="11" fill="#86868b">Due Mar 10</text>
  </g>

  <!-- Assignment Card 5 -->
  <g transform="translate(12, 648)">
    <rect width="351" height="44" rx="10" fill="white" filter="url(#shadow)"/>
    <text x="14" y="20" font-size="13" font-weight="600" fill="#1d1d1f">Vocabulary Unit 8</text>
    <rect x="280" y="8" width="44" height="16" rx="8" fill="rgba(0,113,227,0.08)"/>
    <text x="302" y="19" text-anchor="middle" font-size="9" font-weight="600" fill="#0071e3">Graded</text>
    <text x="14" y="36" font-size="11" fill="#86868b">Alex · ELA 7 · 38/40 (95%)</text>
  </g>
</svg>
